<svg version="1" xmlns="http://www.w3.org/2000/svg" width="682.667" height="682.667" viewBox="0 0 512.000000 512.000000"><path d="M151.6 1.7c-34.8 9.2-46.2 52.7-20.5 78.2l5.1 4.9-6.7 20.9c-3.6 11.4-8.9 28-11.6 36.8-5.1 16.2-15.8 49.8-20.8 65.5-1.5 4.7-4 12.6-5.6 17.6l-2.9 9.2-7.1 3.1c-32.4 14.3-44.4 55.5-24.8 85.2l2.5 3.8-2.7 8.8c-1.5 4.8-3.8 11.9-5 15.8-1.3 3.8-4.7 14.4-7.5 23.5s-5.5 17.6-6 19c-.5 1.4-4.4 13.3-8.6 26.5-4.1 13.2-12.3 38.8-18 56.9-5.8 18.1-10.3 33.3-10.2 33.7.2.4 4.1-.6 8.8-2.1 4.7-1.6 15.3-5 23.5-7.5 8.3-2.6 20-6.3 26-8.2 6.1-1.9 15.7-5 21.5-6.8 5.8-1.8 20.4-6.5 32.5-10.3 22.2-7.1 135-43 172-54.7 23.2-7.4 97.7-31 124.1-39.4l18-5.7 5 5.1c17.9 18.3 46.7 18.7 65.3 1 6.5-6.2 10.1-12.2 12.7-21 1.4-5.2 1.6-8.8 1.1-27-.4-11.5-1.1-23.9-1.6-27.5-.6-3.6-1.3-8.8-1.7-11.5-.3-2.8-.8-5.2-.9-5.5-.2-.3-.6-2.6-1-5-3.5-24.6-16.3-62.6-30.7-91.5C426.5 94.7 334 25.2 226 5.6c-12-2.2-16.7-2.8-30-4.3-1.9-.2-11.4-.5-21-.8-13.8-.3-18.7-.1-23.4 1.2z"/></svg>